<svg version="1.1" xmlns="http://www.w3.org/2000/svg" xmlns:xlink="http://www.w3.org/1999/xlink" x="0px" y="0px" viewBox="0 0 256 256" enable-background="new 0 0 256 256" xml:space="preserve">
<metadata> Svg Vector Icons : http://www.onlinewebfonts.com/icon </metadata>
<g><g><path fill="#000000" d="M234.5,67.2l-43.7-20.7c0,0-4.1-5.4-8.7-5.9l1.4-9.1c0,0,1.9-9.4-5.1-10.9L145.9,11c0,0-9.5-1.5-11.4-0.8c0,0-7.5,1.3-8.5,9.4l-0.5,9.1L107,36l-3.5-4.7c0,0-5.3-4.9-10.5-1.8c0,0-14.2,8.2-22.3,18.4l-49.3,18l3.1,43.1l5.2,2.7l6,76.8l91.8,57.6l0.1-85.9l103.3-51L234.5,67.2L234.5,67.2z M184.3,45.6c0,0,3.6,1.7,5.1,6.5c0,0,2.3,5.4-0.7,8.4l-12.4,11.5c2.3-9-7.3-9.7-7.3-9.7c-4.8-0.4-9,1-9,1c-3,1.8-9.2,2.1-9.2,2.1c-5,0.6-12.2-2.1-12.2-2.1s14.6-12.7,27.9-16.1c0,0,5.7-1.8,9.7-2.5C176.2,44.6,181.7,43.3,184.3,45.6L184.3,45.6z M169.8,78c0,0-3.3,1.5-7.6,0c0,0-19.3-7.6-21.4-10.2c1.5,1.1,10.3,1.5,10.3,1.5c5.9-0.3,11.1-2.5,11.1-2.5c2.5-1.1,8.3-0.3,8.3-0.3C176.5,67.4,169.8,78,169.8,78z M179.6,26.1c0,0,1.7,0.4-1,14.6c0,0-18.2,1.8-28.3,9.7C166,33.2,179.6,26.1,179.6,26.1L179.6,26.1z M129.7,20.4c0,0,0.4-5.8,6.2-6.6c5.8-0.8,14.3,1.4,40,10c-16.8,9-41.4,38.7-41.4,38.7c-0.4-4.3-4.3-4.8-4.3-4.8l-2.8-1L129.7,20.4L129.7,20.4z M131.3,65c-5.7,3.5-12,22.5-12.8,24.9c-1.3-22.4,12.2-27.7,12.2-27.7L131.3,65L131.3,65z M125.3,32.8l-1.3,22.5c0,0-4.8-4.2-9.5-10.2l-4.7-6L125.3,32.8z M72.2,51.5c0,0,8.8-10.6,20.9-18.1c0,0,4.2-4,7.9,0.8l15.3,18.5l0.6,0.5l-27.7-9.4c0,0-0.1,0-0.1,0l-0.2,0l0,0c-0.3-0.1-0.6-0.2-1-0.3c-7.3-2-10.5,2.9-10.5,2.9l-5.3,9.1C72.2,55.4,70.7,53.3,72.2,51.5L72.2,51.5z M70.8,70.4c0.4-5.6,3.2-10.3,3.2-10.3c3.7-9.3,7.6-12.2,7.6-12.2c1.9-1.8,5.1-0.9,5.1-0.9l3.9,1.3l35.8,12.4c-14.3,9.2-11.4,30.8-11.4,30.8S80,83.1,75.7,82.2c-4.3-0.9-4.9-6.1-4.9-6.1V70.4L70.8,70.4z M28.1,106l-2.7-35.6l98.6,49.3l0,36.4L28.1,106L28.1,106z M39.5,186.4l-5.9-72.8l90.3,46.7l0,79.1L39.5,186.4L39.5,186.4z M126.1,116.7L27.7,67.6l40.1-14.9c0,0-0.7,4.2,2.3,6.4c-3.7,8.2-3,15.2-3,15.2c-0.1,10.5,6.8,11.1,6.8,11.1l39.8,9.4c7,2,8.9-5.6,8.9-5.6l4.2-10.7c5.4-11.5,7.4-11.8,7.9-11.6l0.1,0.1c0,0,3.5,5.1,18,11l10.5,3.8c0,0,5.6,1.3,9.5-1.4s10.9-10.3,10.9-10.3l7.7-7.3c0,0,3.8-4.9,2.1-9.7l-0.4-1.5l37,17.4L126.1,116.7L126.1,116.7z M227.4,106.9l-99.7,49.4l0-36.7l102.6-46.3L227.4,106.9L227.4,106.9z"/><path fill="#000000" d="M227.6,110.8l-3.8,1.9l-5.5,75l-90.7,53.9v4.4l94.4-56.2L227.6,110.8z"/><path fill="#000000" d="M184.9,173.6c0,0,5-4.2,6.2-11.5c0,0,1.1-6.6-0.7-8.8c0,0-2-4.2-6.9-4c0,0-5.9-0.2-12,5.2c0,0-6.8,5.3-10,13.7c0,0-2.3,5-2.3,12.7l14.2-8.3l3.8-4.3c0.9-1.3,0.6-2.8,0.6-2.8s0-0.6-1.5-0.9c-1.4-0.3-2.6,1.2-2.6,1.2c-2,1.6-1.7,5.1-1.7,5.1l-10.3,5.9c0,0-0.2-8.5,6.3-15.9c0,0,4.4-5.4,10.7-7.9c0,0,5.4-1.9,8.2,1.4c0,0,2,2.3,1.6,6.1c0,0-0.3,5-1.9,7.3c0,0-2.4,4.2-3.8,5.1c0,0-2.7,1.5-2.5,5.9l-11,6.3c0,0-1-9.3,3.8-12.4l-4.8,2.8c0,0-2,1.3-1.8,14l0.6-0.2c0,0-2.5,5.5-1.8,9.2c0,0,0.9,4,4.8,3.8c0,0,3.4,0.2,6.9-2.8c0,0,4.4-4,5.7-6.8c0,0,2.1-3.7,2-7.8c0,0-0.4-2.7-1.4-3.6l-1-0.8l0.8,0v-3.6C183.3,176.8,183.2,175,184.9,173.6L184.9,173.6z M175.4,167.3c0.2,1.2-0.9,1.4-0.9,1.4C174.4,167.3,175.4,167.3,175.4,167.3z M181.2,191.1c-0.5,1-2,3.9-3.8,5.4c0,0-2.5,2.2-4.1,2.5c0,0-4.4,1.3-5.2-2.9c0,0-0.8-4.1,2.9-8.5c0,0,3.4-4,5.8-4.8c0,0,3.6-0.9,4.6,1C181.4,183.9,183.2,186.7,181.2,191.1L181.2,191.1z"/><path fill="#000000" d="M73.4,148c0,0-5-0.3-7.1,5c0,0-1.2,0.6-1.3,7.6l9.4,6c-1.8,0.9-1.9,6.4-1.9,6.4v5.4l0.9,0.6c-2.7,1.5-2.4,4.7-2.4,4.7c0.4,5.6,2.5,7.7,2.5,7.7c4.4,7.9,9.5,9.3,9.5,9.3c3,1.5,5.5,0,5.5,0c5.2-3.6,0-12.3,0-12.3h0.5l0-3c0,0-0.3-1.7,1.7-1.3c0,0,6.3,1.2,6.6-6.3c0,0,1.7-9.7-9.1-21C88.3,156.7,81.3,148.4,73.4,148L73.4,148z M81,166.1c0.8,0.9-0.6,0.8-0.6,0.8S80.2,165.7,81,166.1z M88,196.3c-0.8,3.3-5.5,1.4-5.5,1.4c-7.2-3.5-8.4-11-8.4-11c-1.5-4.4,3.5-5.4,3.5-5.4c5.1,0.6,9.1,7.5,9.1,7.5C89.2,193.6,88,196.3,88,196.3L88,196.3z M94.6,176.9c0,0,0,4.9-5.5,4.2c0,0-3.3-1.3-2.7,2.8l-11-6.9l0-3.3c0,0-0.2-3.2,1.2-4.3c1.5-1.1,3.8,0,3.8,0c0.9,0.5,2.1,0.4,2.1,0.4c3-0.4,0-4.5,0-4.5s-0.1-0.9-2-1.8c0,0-2-0.8-2.4,0.5l-0.3,2l-10.3-6.3c0,0-0.2-8.6,6.3-8.5c0,0,3.6-0.3,8.6,3.3C82.5,154.3,96.1,163.8,94.6,176.9L94.6,176.9z"/></g></g>
</svg>